<svg width="22" height="20" viewBox="0 0 22 20" fill="none" xmlns="http://www.w3.org/2000/svg">
<path d="M18.8283 12.6716C18.6086 12.452 18.3106 12.3285 17.9999 12.3285C17.6893 12.3285 17.3913 12.452 17.1716 12.6716C16.9519 12.8913 16.8285 13.1893 16.8285 13.5C16.8285 13.8107 16.9519 14.1086 17.1716 14.3283L17.5099 14.6666H15.6666C14.4289 14.6666 13.2419 14.175 12.3668 13.2998C11.4916 12.4246 10.9999 11.2377 10.9999 9.99997C10.9999 8.7623 11.4916 7.57531 12.3668 6.70014C13.2419 5.82497 14.4289 5.33331 15.6666 5.33331H17.5216L17.1716 5.67164C17.0623 5.7801 16.9755 5.90913 16.9162 6.0513C16.857 6.19347 16.8265 6.34596 16.8265 6.49997C16.8265 6.65399 16.857 6.80648 16.9162 6.94865C16.9755 7.09082 17.0623 7.21985 17.1716 7.32831C17.2806 7.43644 17.4099 7.52198 17.552 7.58004C17.6942 7.6381 17.8464 7.66753 17.9999 7.66664C18.1535 7.66753 18.3057 7.6381 18.4478 7.58004C18.59 7.52198 18.7193 7.43644 18.8283 7.32831L21.1616 4.99497C21.2697 4.88596 21.3553 4.75667 21.4133 4.61453C21.4714 4.47239 21.5008 4.32018 21.4999 4.16664C21.5008 4.0131 21.4714 3.86089 21.4133 3.71875C21.3553 3.5766 21.2697 3.44732 21.1616 3.33831L18.8283 1.00497C18.7195 0.896194 18.5904 0.809907 18.4482 0.751036C18.3061 0.692166 18.1538 0.661865 17.9999 0.661865C17.6893 0.661865 17.3913 0.785285 17.1716 1.00497C16.9519 1.22466 16.8285 1.52262 16.8285 1.83331C16.8285 2.14399 16.9519 2.44195 17.1716 2.66164L17.5099 2.99997H15.6666C14.5108 3.00082 13.3731 3.28787 12.3552 3.83549C11.3374 4.38311 10.4709 5.17426 9.83327 6.13831C9.19563 5.17426 8.32919 4.38311 7.31131 3.83549C6.29343 3.28787 5.15578 3.00082 3.99994 2.99997H1.66661C1.35719 2.99997 1.06044 3.12289 0.841648 3.34168C0.622855 3.56047 0.499939 3.85722 0.499939 4.16664C0.499939 4.47606 0.622855 4.7728 0.841648 4.9916C1.06044 5.21039 1.35719 5.33331 1.66661 5.33331H3.99994C5.23762 5.33331 6.4246 5.82497 7.29977 6.70014C8.17494 7.57531 8.6666 8.7623 8.6666 9.99997C8.6666 11.2377 8.17494 12.4246 7.29977 13.2998C6.4246 14.175 5.23762 14.6666 3.99994 14.6666H1.66661C1.35719 14.6666 1.06044 14.7896 0.841648 15.0083C0.622855 15.2271 0.499939 15.5239 0.499939 15.8333C0.499939 16.1427 0.622855 16.4395 0.841648 16.6583C1.06044 16.8771 1.35719 17 1.66661 17H3.99994C5.15578 16.9991 6.29343 16.7121 7.31131 16.1645C8.32919 15.6168 9.19563 14.8257 9.83327 13.8616C10.4709 14.8257 11.3374 15.6168 12.3552 16.1645C13.3731 16.7121 14.5108 16.9991 15.6666 17H17.5216L17.1716 17.3383C17.0623 17.4468 16.9755 17.5758 16.9162 17.718C16.857 17.8601 16.8265 18.0126 16.8265 18.1666C16.8265 18.3207 16.857 18.4731 16.9162 18.6153C16.9755 18.7575 17.0623 18.8865 17.1716 18.995C17.2806 19.1031 17.4099 19.1887 17.552 19.2467C17.6942 19.3048 17.8464 19.3342 17.9999 19.3333C18.1535 19.3342 18.3057 19.3048 18.4478 19.2467C18.59 19.1887 18.7193 19.1031 18.8283 18.995L21.1616 16.6616C21.2697 16.5526 21.3553 16.4233 21.4133 16.2812C21.4714 16.1391 21.5008 15.9868 21.4999 15.8333C21.5008 15.6798 21.4714 15.5276 21.4133 15.3854C21.3553 15.2433 21.2697 15.114 21.1616 15.005L18.8283 12.6716Z" fill="white"/>
</svg>
